<svg width="17" height="17" viewBox="0 0 17 17" fill="none" xmlns="http://www.w3.org/2000/svg">
<path d="M15.4 16.0818C13.4889 16.0818 11.6261 15.6603 9.81153 14.8173C7.99702 13.9744 6.38961 12.8605 4.98931 11.4759C3.58902 10.0912 2.46309 8.50113 1.61154 6.70554C0.75998 4.90995 0.333906 3.06717 0.333313 1.1772C0.333313 0.913403 0.422202 0.69357 0.59998 0.517705C0.777757 0.341839 0.99998 0.253906 1.26665 0.253906H4.86665C5.07405 0.253906 5.25924 0.319856 5.4222 0.451755C5.58517 0.583654 5.68146 0.752192 5.71109 0.957369L6.28887 4.03502C6.3185 4.2402 6.31465 4.4272 6.27731 4.59603C6.23998 4.76486 6.15494 4.91493 6.0222 5.04625L3.88887 7.2006C4.51109 8.2558 5.28887 9.24504 6.2222 10.1683C7.15553 11.0916 8.18516 11.8904 9.31109 12.5645L11.4 10.4981C11.5333 10.3662 11.7075 10.2674 11.9226 10.2017C12.1378 10.1361 12.3487 10.1176 12.5555 10.1464L15.6222 10.7619C15.8296 10.8058 16 10.9049 16.1333 11.0591C16.2666 11.2133 16.3333 11.3927 16.3333 11.5972V15.1585C16.3333 15.4223 16.2444 15.6422 16.0666 15.818C15.8889 15.9939 15.6666 16.0818 15.4 16.0818Z" fill="#181818"/>
</svg>
